<?xml version="1.0" encoding="UTF-8"?>
<svg width="173px" height="41px" viewBox="0 0 173 41" version="1.1" xmlns="http://www.w3.org/2000/svg" xmlns:xlink="http://www.w3.org/1999/xlink">
    <!-- Generator: Sketch 45 (43475) - http://www.bohemiancoding.com/sketch -->
    <title>logo</title>
    <desc>Created with Sketch.</desc>
    <defs></defs>
    <g id="Design" stroke="none" stroke-width="1" fill="none" fill-rule="evenodd">
        <g id="Web" transform="translate(-105.000000, -30.000000)" fill="#000000">
            <g id="logo" transform="translate(80.000000, 10.000000)">
                <g id="Fill-2">
                    <path d="M194.565666,42.6649822 C194.565666,38.0703423 193.290802,37.5079156 191.425148,37.5079156 C189.807507,37.5079156 188.470455,38.2890638 188.43936,42.6649822 L194.565666,42.6649822 Z M188.43936,44.6022299 C188.43936,49.0086502 189.620941,49.8835363 191.611713,49.8835363 C193.35299,49.8835363 194.254723,48.4767254 194.348006,46.8839269 L197.147228,46.8839269 C197.116133,50.3834712 194.970631,51.9777577 191.673901,51.9777577 C188.346078,51.9777577 185.702327,50.9778878 185.702327,44.0085572 C185.702327,39.3834154 186.230929,35.5706678 191.673901,35.5706678 C196.152212,35.5706678 197.271605,38.0390964 197.271605,43.2586549 L197.271605,44.6022299 L188.43936,44.6022299 Z M178.925264,51.6652983 L178.925264,40.7277344 C178.925264,39.0397102 178.334473,37.6641452 176.157877,37.6641452 C173.358655,37.6641452 172.95443,40.1645637 172.95443,42.320533 L172.95443,51.6652983 L170.403962,51.6652983 L170.403962,39.1646939 C170.403962,38.0703423 170.341773,36.9767347 170.248491,35.8831271 L172.95443,35.8831271 L172.95443,37.9141127 L173.078807,37.9141127 C174.073822,36.1330946 175.256144,35.5706678 177.277269,35.5706678 C180.636187,35.5706678 181.475732,37.6016534 181.475732,40.7277344 L181.475732,51.6652983 L178.925264,51.6652983 Z M163.439593,51.6652983 L165.98932,51.6652983 L165.98932,35.8831271 L163.439593,35.8831271 L163.439593,51.6652983 Z M163.284122,31.851658 L166.144791,31.851658 L166.144791,29.102016 L163.284122,29.102016 L163.284122,31.851658 Z M153.273258,37.6953911 C150.380013,37.6953911 150.28673,41.1956794 150.28673,43.2899008 C150.28673,48.3524856 151.437957,49.539831 153.335446,49.539831 C156.413776,49.539831 156.320493,45.8833131 156.320493,43.6960979 C156.320493,41.3519091 156.475964,37.6953911 153.273258,37.6953911 L153.273258,37.6953911 Z M156.258304,35.8831271 L158.808772,35.8831271 L158.808772,53.2588408 C158.808772,56.7903751 156.475964,57.6340152 153.024504,57.6340152 C150.411107,57.6340152 148.047945,56.3209421 148.265604,53.4150705 L151.127015,53.4150705 C151.158109,54.8843732 152.12203,55.6967675 153.522011,55.6967675 C155.294383,55.6967675 156.258304,54.6024159 156.258304,52.9776275 L156.258304,49.6960607 L156.165022,49.6960607 C155.512043,50.9466419 154.080967,51.6652983 152.713561,51.6652983 C148.45217,51.6652983 147.612625,47.9775345 147.612625,43.2899008 C147.612625,36.0393568 151.251392,35.5706678 152.526255,35.5706678 C154.17425,35.5706678 155.480948,36.2893242 156.196116,37.8203749 L156.258304,37.8203749 L156.258304,35.8831271 Z M140.928845,51.6652983 L140.928845,40.7277344 C140.928845,39.0397102 140.338054,37.6641452 138.160717,37.6641452 C135.362236,37.6641452 134.95727,40.1645637 134.95727,42.320533 L134.95727,51.6652983 L132.407543,51.6652983 L132.407543,39.1646939 C132.407543,38.0703423 132.345354,36.9767347 132.252072,35.8831271 L134.95727,35.8831271 L134.95727,37.9141127 L135.081647,37.9141127 C136.077403,36.1330946 137.259725,35.5706678 139.28085,35.5706678 C142.639028,35.5706678 143.479313,37.6016534 143.479313,40.7277344 L143.479313,51.6652983 L140.928845,51.6652983 Z M117.140272,51.6652983 L117.140272,29.102016 L128.70955,29.102016 L128.70955,31.6016905 L120.001682,31.6016905 L120.001682,38.8522346 L128.087665,38.8522346 L128.087665,41.3519091 L120.001682,41.3519091 L120.001682,49.1648799 L128.896115,49.1648799 L128.896115,51.6652983 L117.140272,51.6652983 Z M76.7503371,42.7096192 C76.7503371,50.2116186 73.7726936,55.3969553 67.8670094,55.3969553 C61.9605848,55.3969553 58.9829413,50.2116186 58.9829413,42.7096192 C58.9829413,35.2061319 61.9605848,30.0200513 67.8670094,30.0200513 C73.7726936,30.0200513 76.7503371,35.2061319 76.7503371,42.7096192 L76.7503371,42.7096192 Z M83.6917556,42.7096192 C83.6917556,32.3716796 76.5926449,24.8786076 67.8670094,24.8786076 C59.1406335,24.8786076 52.0415228,32.3716796 52.0415228,42.7096192 C52.0415228,53.045327 59.1406335,60.3546431 67.8670094,60.3546431 C76.5926449,60.3546431 83.6917556,53.045327 83.6917556,42.7096192 L83.6917556,42.7096192 Z M32.2122828,52.1324994 L42.3053245,51.1512284 L42.3053245,34.2665221 L32.2122828,33.2845071 L32.2122828,52.1324994 Z M49.246743,20.3546431 L49.246743,55.6372514 L25.2716047,57.9710249 L25.2716047,27.4459817 L42.3053245,29.1042479 L42.3053245,20.3546431 L49.246743,20.3546431 Z M88.442511,57.9710249 L88.442511,34.2434597 L83.6917556,34.2434597 L83.6917556,29.102016 L88.442511,29.102016 L88.442511,23.9613163 L95.3831892,23.9613163 L95.3831892,29.102016 L106.068502,29.102016 L106.068502,34.2434597 L95.3831892,34.2434597 L95.347653,51.9524633 L105.760521,50.6847712 L106.376483,55.7860415 L88.442511,57.9710249 Z"></path>
                </g>
            </g>
        </g>
    </g>
</svg>